<mxfile host="app.diagrams.net" modified="2020-07-25T08:06:30.107Z" agent="5.0 (X11)" etag="GHE4m9lIRdwFcBrlDrA3" version="13.5.3" type="github">
  <diagram id="tTqz9VwqPHIfM-Xo4sQP" name="Page-1">
    <mxGraphModel dx="1355" dy="722" grid="1" gridSize="10" guides="1" tooltips="1" connect="1" arrows="1" fold="1" page="1" pageScale="1" pageWidth="827" pageHeight="1169" math="0" shadow="0">
      <root>
        <mxCell id="0" />
        <mxCell id="1" parent="0" />
        <mxCell id="aUfT9pBGBt2JCsOnSaOG-3" style="edgeStyle=orthogonalEdgeStyle;rounded=0;orthogonalLoop=1;jettySize=auto;html=1;" edge="1" parent="1" source="aUfT9pBGBt2JCsOnSaOG-1">
          <mxGeometry relative="1" as="geometry">
            <mxPoint x="400" y="180" as="targetPoint" />
          </mxGeometry>
        </mxCell>
        <mxCell id="aUfT9pBGBt2JCsOnSaOG-1" value="start" style="rounded=1;whiteSpace=wrap;html=1;" vertex="1" parent="1">
          <mxGeometry x="340" y="80" width="120" height="60" as="geometry" />
        </mxCell>
        <mxCell id="aUfT9pBGBt2JCsOnSaOG-6" style="edgeStyle=orthogonalEdgeStyle;rounded=0;orthogonalLoop=1;jettySize=auto;html=1;exitX=0.5;exitY=1;exitDx=0;exitDy=0;" edge="1" parent="1" source="aUfT9pBGBt2JCsOnSaOG-5" target="aUfT9pBGBt2JCsOnSaOG-7">
          <mxGeometry relative="1" as="geometry">
            <mxPoint x="400" y="290" as="targetPoint" />
          </mxGeometry>
        </mxCell>
        <mxCell id="aUfT9pBGBt2JCsOnSaOG-5" value="wczytaj tab 10 liczb" style="shape=parallelogram;perimeter=parallelogramPerimeter;whiteSpace=wrap;html=1;fixedSize=1;" vertex="1" parent="1">
          <mxGeometry x="340" y="180" width="120" height="60" as="geometry" />
        </mxCell>
        <mxCell id="aUfT9pBGBt2JCsOnSaOG-8" style="edgeStyle=orthogonalEdgeStyle;rounded=0;orthogonalLoop=1;jettySize=auto;html=1;exitX=0.5;exitY=1;exitDx=0;exitDy=0;" edge="1" parent="1" source="aUfT9pBGBt2JCsOnSaOG-7" target="aUfT9pBGBt2JCsOnSaOG-9">
          <mxGeometry relative="1" as="geometry">
            <mxPoint x="400" y="360" as="targetPoint" />
          </mxGeometry>
        </mxCell>
        <mxCell id="aUfT9pBGBt2JCsOnSaOG-7" value="max&amp;lt;-pierwsza liczba w tablicy" style="rounded=0;whiteSpace=wrap;html=1;" vertex="1" parent="1">
          <mxGeometry x="340" y="260" width="120" height="60" as="geometry" />
        </mxCell>
        <mxCell id="aUfT9pBGBt2JCsOnSaOG-10" style="edgeStyle=orthogonalEdgeStyle;rounded=0;orthogonalLoop=1;jettySize=auto;html=1;exitX=0.5;exitY=1;exitDx=0;exitDy=0;" edge="1" parent="1" source="aUfT9pBGBt2JCsOnSaOG-9" target="aUfT9pBGBt2JCsOnSaOG-11">
          <mxGeometry relative="1" as="geometry">
            <mxPoint x="400" y="480" as="targetPoint" />
          </mxGeometry>
        </mxCell>
        <mxCell id="aUfT9pBGBt2JCsOnSaOG-9" value="elel=ment&amp;lt;- kolejny element z tab" style="rounded=0;whiteSpace=wrap;html=1;" vertex="1" parent="1">
          <mxGeometry x="340" y="380" width="120" height="60" as="geometry" />
        </mxCell>
        <mxCell id="aUfT9pBGBt2JCsOnSaOG-12" value="tak" style="edgeStyle=orthogonalEdgeStyle;rounded=0;orthogonalLoop=1;jettySize=auto;html=1;" edge="1" parent="1" source="aUfT9pBGBt2JCsOnSaOG-11">
          <mxGeometry relative="1" as="geometry">
            <mxPoint x="400" y="650" as="targetPoint" />
          </mxGeometry>
        </mxCell>
        <mxCell id="aUfT9pBGBt2JCsOnSaOG-14" value="nie" style="edgeStyle=orthogonalEdgeStyle;rounded=0;orthogonalLoop=1;jettySize=auto;html=1;exitX=0;exitY=0.5;exitDx=0;exitDy=0;" edge="1" parent="1" source="aUfT9pBGBt2JCsOnSaOG-11" target="aUfT9pBGBt2JCsOnSaOG-15">
          <mxGeometry relative="1" as="geometry">
            <mxPoint x="280" y="545" as="targetPoint" />
          </mxGeometry>
        </mxCell>
        <mxCell id="aUfT9pBGBt2JCsOnSaOG-11" value="element wieksz od max" style="rhombus;whiteSpace=wrap;html=1;" vertex="1" parent="1">
          <mxGeometry x="360" y="505" width="80" height="80" as="geometry" />
        </mxCell>
        <mxCell id="aUfT9pBGBt2JCsOnSaOG-18" style="edgeStyle=orthogonalEdgeStyle;rounded=0;orthogonalLoop=1;jettySize=auto;html=1;" edge="1" parent="1" source="aUfT9pBGBt2JCsOnSaOG-13">
          <mxGeometry relative="1" as="geometry">
            <mxPoint x="350" y="550" as="targetPoint" />
          </mxGeometry>
        </mxCell>
        <mxCell id="aUfT9pBGBt2JCsOnSaOG-13" value="max&amp;lt;- element" style="rounded=0;whiteSpace=wrap;html=1;" vertex="1" parent="1">
          <mxGeometry x="340" y="650" width="120" height="60" as="geometry" />
        </mxCell>
        <mxCell id="aUfT9pBGBt2JCsOnSaOG-16" value="nie" style="edgeStyle=orthogonalEdgeStyle;rounded=0;orthogonalLoop=1;jettySize=auto;html=1;exitX=0.5;exitY=1;exitDx=0;exitDy=0;" edge="1" parent="1" source="aUfT9pBGBt2JCsOnSaOG-15">
          <mxGeometry relative="1" as="geometry">
            <mxPoint x="280" y="640" as="targetPoint" />
          </mxGeometry>
        </mxCell>
        <mxCell id="aUfT9pBGBt2JCsOnSaOG-19" value="tak" style="edgeStyle=orthogonalEdgeStyle;rounded=0;orthogonalLoop=1;jettySize=auto;html=1;entryX=0;entryY=0.15;entryDx=0;entryDy=0;entryPerimeter=0;" edge="1" parent="1" source="aUfT9pBGBt2JCsOnSaOG-15" target="aUfT9pBGBt2JCsOnSaOG-9">
          <mxGeometry relative="1" as="geometry">
            <mxPoint x="270" y="380" as="targetPoint" />
            <Array as="points">
              <mxPoint x="280" y="380" />
              <mxPoint x="340" y="380" />
            </Array>
          </mxGeometry>
        </mxCell>
        <mxCell id="aUfT9pBGBt2JCsOnSaOG-15" value="jeżeli jest kolejny elel=ment" style="rhombus;whiteSpace=wrap;html=1;" vertex="1" parent="1">
          <mxGeometry x="240" y="505" width="80" height="80" as="geometry" />
        </mxCell>
        <mxCell id="aUfT9pBGBt2JCsOnSaOG-17" value="wyświetl max" style="shape=parallelogram;perimeter=parallelogramPerimeter;whiteSpace=wrap;html=1;fixedSize=1;" vertex="1" parent="1">
          <mxGeometry x="210" y="640" width="120" height="60" as="geometry" />
        </mxCell>
      </root>
    </mxGraphModel>
  </diagram>
</mxfile>
